<?xml version="1.0" encoding="UTF-8"?>
<svg id="Layer_1" xmlns="http://www.w3.org/2000/svg" version="1.1" viewBox="0 0 480.64 447.37">
  <!-- Generator: Adobe Illustrator 29.5.1, SVG Export Plug-In . SVG Version: 2.1.0 Build 141)  -->
  <defs>
    <style>
      .st0 {
        fill: #037648;
      }

      .st1 {
        fill: #fff;
      }

      .st2 {
        fill: #f69320;
      }
    </style>
  </defs>
  <g>
    <path class="st0" d="M233.18,250.85h-121.93l-57.52-69.73,121.48,21.28s27.05-126.85,90.59-154.69c0,0-42.07,34.92-32.62,203.14Z"/>
    <path class="st2" d="M261.8,266.21s-7.44,2.1-8.01-3.68c0,0-23.48-159.14,25.75-226.9,0,0-12.01,96.65,20.6,162.82,0,0,71.55-5.25,128.23,19.96,0,0-94.44,1.06-166.57,47.8Z"/>
    <path class="st0" d="M171.36,151.19c0,16.24-14.34,29.4-32.05,29.4s-32.06-13.17-32.06-29.4,14.35-29.42,32.06-29.42,32.05,13.17,32.05,29.42Z"/>
    <path class="st2" d="M365.41,155.92c0,16.24-14.36,29.4-32.07,29.4s-32.05-13.17-32.05-29.4,14.35-29.42,32.05-29.42,32.07,13.17,32.07,29.42Z"/>
    <g>
      <path class="st1" d="M146.15,318.84c-.77,3.83-3.92,6.96-9.47,9.32-5.18,2.21-11.24,3.31-18.18,3.31h-52.05v-1.97c2,0,3.65-.43,4.94-1.28.55-.4,1.01-.93,1.35-1.6.33-.67.49-1.23.49-1.71v-35.74c0-.82-.03-1.35-.06-1.58-.21-.78-.68-1.45-1.36-1.99-.68-.53-1.4-.93-2.16-1.2-.74-.27-1.63-.4-2.66-.4v-1.97h55.21c3.91.19,6.83.49,8.78.88,5.85,1.26,8.78,3.52,8.78,6.82,0,2.67-2.43,5.19-7.31,7.6-4.93,1.87-7.42,2.82-7.49,2.85l-4.31,1.29c.98,0,3.2.39,6.64,1.18,5.13,1.18,9.24,2.69,12.31,4.54,4.47,2.66,6.71,5.86,6.71,9.56v.74c0,.25-.04.48-.08.76-.05.26-.08.46-.08.6ZM121.29,316.39c0-2.44-1.1-4.68-3.3-6.76-1.51-1.4-3.58-2.7-6.25-3.88-1.89-.85-3.01-1.28-3.32-1.28l-11.39,2.51v16.84c0,.53.05.93.18,1.19.13.26.36.49.65.69.77.52,1.84.79,3.25.79h5.77c3.38,0,6.47-.77,9.24-2.31,3.45-1.91,5.16-4.49,5.16-7.78ZM116.25,291.75c0-2.02-1.86-3.38-5.6-4.09-1.23-.23-3.1-.38-5.6-.44-1.19,0-2.08.03-2.71.04-1.94.17-3.26.6-3.95,1.28-.7.67-1.03,1.49-1.03,2.46v10.6l3.84-.78c3.37-.87,5.89-1.63,7.53-2.3,5.02-2.02,7.52-4.28,7.52-6.77Z"/>
      <path class="st1" d="M231.47,283.96c-1.57.13-2.93.65-4.05,1.58-.92.72-1.52,1.69-1.82,2.91-.31,1.23-.47,2.41-.47,3.57-.03.32-.04.53-.04.63,0,.07.02.14.04.2v23.97c0,4.51-2.7,8.27-8.09,11.26-5.09,2.83-11.53,4.48-19.35,4.94-1.01.03-1.99.07-2.88.13-.9.06-1.96.07-3.18.07-9.41,0-17.11-1.19-23.11-3.55-6.69-2.65-10.03-6.36-10.03-11.16v-29.62c0-.95-.07-1.66-.23-2.11-.15-.44-.57-.92-1.23-1.4-1.29-.92-2.77-1.38-4.47-1.38v-1.97h37.48v1.97c-.98,0-1.87.13-2.69.39-.83.23-1.66.63-2.54,1.15-.85.53-1.47,1.1-1.83,1.7-.36.62-.53,1.36-.53,2.26v29.23c0,2.37,1.76,4.28,5.3,5.72,3.14,1.29,6.88,1.94,11.25,1.94s8.01-.85,11.27-2.54c3.27-1.71,4.89-3.83,4.89-6.36v-26.03c0-1.62-.15-2.91-.46-3.91-.3-.98-.99-1.77-2.03-2.37-1.38-.79-3.01-1.19-4.87-1.19v-1.97h23.65v1.93Z"/>
      <path class="st1" d="M323.62,331.47h-38.79v-1.82c1.36-.11,2.62-.37,3.75-.8.61-.22.92-.67.92-1.32,0-.89-.57-2.14-1.69-3.75-.78-1.08-2.9-3.62-6.39-7.64-1.03-1.14-2.34-2.42-3.9-3.79-1.56-1.38-3.12-2.74-4.66-4.08l-4.07,1.22v13.89c0,1.06.11,1.92.34,2.59.23.67.66,1.26,1.28,1.74.83.66,1.62,1.1,2.41,1.35.36.09,1.26.24,2.72.43v1.97h-36.81v-1.97c.87,0,1.57-.07,2.12-.23.54-.14,1.2-.42,1.96-.81,1.04-.52,1.71-1.13,2.02-1.82.3-.69.46-1.58.46-2.71l.15-32.24c0-1.02-.02-1.82-.08-2.37-.2-1.73-.6-2.93-1.18-3.58-.59-.66-1.27-1.12-2.04-1.36-.77-.24-1.7-.37-2.78-.37v-1.97h53.91c6.01,0,10.58.59,13.74,1.78,3.17,1.18,4.98,2.89,5.43,5.12.1.6.15,1.04.15,1.28,0,2.44-1.46,4.73-4.38,6.86-2.11,1.51-4.85,2.91-8.23,4.19-2.57.95-4.06,1.43-4.49,1.43,2.73,2.21,5.1,4.26,7.13,6.14,2.02,1.91,4.14,4.02,6.35,6.39,1.19,1.28,3.17,4.14,5.94,8.54,2.04,3.24,3.74,5.03,5.08,5.39.97.26,2.18.48,3.62.63v1.69ZM287.76,292.68c0-1.72-1.11-3.09-3.32-4.06-1.89-.86-4.31-1.29-7.24-1.29-2,0-3.87.23-5.62.7-.97.25-1.65.7-2.03,1.32-.39.6-.58,1.33-.58,2.15v12.43l2.67-.54c3.91-.85,7.36-2.1,10.33-3.77,3.84-2.14,5.77-4.45,5.77-6.92Z"/>
      <path class="st1" d="M416.98,307.24c0,7.62-3.64,13.71-10.94,18.27-7.64,4.8-18.17,7.2-31.56,7.2s-23.13-2.45-31.04-7.36c-7.91-4.9-11.87-11.07-11.87-18.49s4.14-13.69,12.4-18.67c8.06-4.85,17.9-7.29,29.51-7.29,12.35,0,22.42,2.02,30.17,6.06,8.89,4.63,13.32,11.4,13.32,20.3ZM391.49,306.41c0-4.63-1.51-8.82-4.55-12.59-3.48-4.33-7.92-6.5-13.31-6.5-4.48,0-8.33,1.97-11.6,5.93-3.26,3.94-4.88,8.26-4.88,12.96s1.56,9.2,4.69,13.22c3.54,4.56,7.91,6.84,13.1,6.84,5.95,0,10.33-2.19,13.16-6.55,2.25-3.48,3.38-7.91,3.38-13.32Z"/>
    </g>
    <g>
      <path class="st1" d="M99.54,369.95c3.14,0,5.51.16,7.15.44,2.56.44,4.65,1.16,6.29,2.15,2.23,1.35,3.36,2.98,3.36,4.89,0,3-2.21,5.97-6.61,8.92-4.47,3.02-10.41,5.19-17.82,6.54-3.96.72-7.64,1.08-11.06,1.08-3.19,0-5.9-.57-8.15-1.72-2.07-1.04-3.1-2.19-3.1-3.48,0-.74.52-2.13,1.6-4.14.44-.91,1.65-3.03,3.61-6.4,1.53-2.63,3.61-6.54,6.31-11.74,1.33-2.51,2.25-4.09,2.73-4.74.32-.46.65-.77.96-.96.24-.13.76-.35,1.52-.65,1.06-.47,2.35-1.28,3.92-2.43.76-.55,1.49-.82,2.17-.82,1.31,0,1.95.45,1.95,1.36,0,.59-.32,1.48-.99,2.65-1.03,1.8-3.36,5.53-6.99,11.16-3.23,5.26-5,8.18-5.35,8.78-.9,1.58-1.37,2.77-1.37,3.62,0,1.24.9,2.41,2.71,3.48,2.06,1.2,4.7,1.79,7.96,1.79,4.8,0,8.81-1.17,12.09-3.51,2.26-1.64,3.38-3.52,3.38-5.64,0-3.73-2.88-5.6-8.68-5.6-1.13,0-2.13.01-3.02.03-2.04.06-3.27.07-3.66.07-1.45,0-2.16-.45-2.16-1.39,0-.33.31-.82.95-1.49.04-.05.18-.24.4-.57.2-.35.56-.67,1.17-.95,3.27-1.58,5.84-3.03,7.69-4.39,3.61-2.59,5.4-4.79,5.4-6.58,0-1.45-1.25-2.55-3.74-3.29-1.23-.35-3.04-.66-5.42-.9-2.37-.24-4.69-.36-6.92-.36-3.52,0-7.48.27-11.84.84-4.35.56-8.16,1.29-11.46,2.19-3.08.83-5.18,1.52-6.31,2.05-.28.13-.63.46-1.1,1.06-.21.26-.64.39-1.32.39s-1.31-.09-1.92-.29c-1.06-.37-1.57-.9-1.57-1.62,0-.31.17-.62.52-.9.06-.05.56-.31,1.49-.77,2.96-1.58,5.09-2.65,6.4-3.18,6.48-2.64,13.37-4.6,20.69-5.9,5.16-.9,10.21-1.36,15.08-1.36,5.71,0,10.03.86,12.97,2.56,3.03,1.78,4.54,3.85,4.54,6.26s-1.87,4.91-5.63,7.83c-2,1.52-4.93,3.4-8.79,5.65Z"/>
      <path class="st1" d="M141.05,385.49c-2.19,2.39-4.68,4.24-7.46,5.54-1.37.64-3.44,1.27-6.23,1.89-3.16.71-5.19,1.05-6.09,1.05-1.19,0-2.06-.54-2.66-1.62-.63-1.2-.93-2.27-.93-3.25,0-.71.21-1.38.65-2.01l1.53-2.23c1.44-2.2,2.59-3.74,3.46-4.57,3.62-3.54,8.04-6.57,13.27-9.12,4.45-2.18,8.11-3.28,10.99-3.28,2.42,0,4.65.53,6.66,1.59.83.44,1.25,1.02,1.25,1.72,0,.83-.48,2.38-1.46,4.64-2.64,6.16-3.98,10.99-3.98,14.51,0,.6.28,1.42.83,2.48.12.29.2.55.2.8,0,.47-.39.94-1.19,1.45-.53.36-1.03.54-1.49.54-.39,0-.98-.11-1.78-.33-.49-.12-.84-.2-1.06-.2-.15,0-.45.05-.93.15-.28.04-.56.07-.82.07-.81,0-1.38-.31-1.75-.9-.53-.97-.89-2.63-1.04-4.94l.03-4ZM147.19,371.96c-.55,0-1.26.19-2.16.57-.89.37-1.75.82-2.52,1.36-3.83,2.67-6.97,5.24-9.41,7.72-1.35,1.4-2.37,2.79-3.03,4.18-.4.85-.6,1.55-.6,2.08,0,.47.25.7.72.7,1.11,0,3.06-.95,5.85-2.85,2.6-1.79,5.12-4.06,7.55-6.8,1.41-1.57,2.72-3.33,3.92-5.31.35-.57.52-.97.52-1.2,0-.31-.29-.46-.84-.46Z"/>
      <path class="st1" d="M168.7,382.09l7.12-7.47c1.14-1.11,2.36-2.2,3.62-3.29.38-.3,1.06-.73,2.06-1.27.94-.72,1.6-1.18,2.02-1.35,1.04-.47,2.01-.69,2.89-.69,2.46,0,3.68,1.52,3.68,4.58,0,1.77-.3,3.74-.93,5.88-.14.56-.77,2.61-1.88,6.15-.31,1.04-.48,1.84-.48,2.39,0,.36.24.77.72,1.23.5.45.75.86.75,1.23,0,.59-1.06,1.42-3.18,2.5-2.49,1.26-4.39,1.88-5.67,1.88-.92,0-1.73-.6-2.46-1.83-.38-.59-.56-1.7-.56-3.32,0-.7.18-1.5.51-2.4l3.34-8.25c.44-1.19.67-1.84.67-1.99,0-.32-.12-.48-.36-.48-.64,0-4.12,3.7-10.42,11.1-1.63,1.95-2.66,3.11-3.05,3.5-.65.69-1.06,1.14-1.22,1.34-.33.4-.55.6-.65.6-.11.06-.39.12-.85.19-.61.11-1.44.43-2.46.92-.88.41-1.44.63-1.68.63-.39,0-.93-.36-1.65-1.08-.72-.62-1.08-1.04-1.08-1.24,0-.75.43-2.34,1.3-4.78,3.14-8.68,5-13.6,5.59-14.78.44-.79.82-1.39,1.13-1.79.19-.22.66-.45,1.46-.69.3-.09.7-.26,1.2-.5,1.34-.66,2.24-.99,2.67-.99.5,0,1.13.13,1.89.43.75.29,1.3.6,1.65.92.28.28.43.63.43,1.07,0,.51-.29,1.2-.87,2.02-1.07,1.52-1.9,2.86-2.49,4.05l-2.72,5.58Z"/>
      <path class="st1" d="M214.79,385.49c-3.12,2.25-5.65,3.87-7.59,4.83-2.67,1.29-5.54,2.18-8.57,2.63-1.24.21-2.03.31-2.41.31-.64,0-1.43-.36-2.34-1.06-.26-.19-.56-.42-.9-.68-.31-.21-.5-.38-.55-.49-.1-.15-.17-.46-.17-.92,0-5.57,3.44-10.63,10.39-15.17,7.33-4.81,12.64-7.22,15.88-7.22.5,0,1.91.18,4.27.56,2,0,3.19.03,3.63.06.43.03.92.12,1.45.27.71.24,1.06.62,1.06,1.11,0,.28-.25,1.06-.76,2.32-.42,1.15-1.68,5.48-3.83,12.99-1.86,6.42-3.75,11.6-5.69,15.53-2.2,4.46-3.65,7.19-4.34,8.14-.47.64-1.57,1.26-3.35,1.86-2.45.8-4.24,1.2-5.38,1.2-.67,0-2.29-.29-4.9-.88-2.58-.59-4.06-1-4.41-1.24-.77-.48-1.72-1.67-2.82-3.6-1.02-1.76-1.53-2.95-1.53-3.6,0-.77.97-2.61,2.9-5.51.58-.91,1.36-1.37,2.27-1.37.69,0,1.22.09,1.57.31.41.21.79.82,1.17,1.81,1.24,3.18,2.62,5.76,4.12,7.74,1.05,1.39,2,2.09,2.83,2.09.7,0,1.2-.5,1.49-1.53l4.44-14.65c.54-1.79,1.24-3.73,2.09-5.81ZM219.89,371.44c-.77,0-1.91.35-3.47,1.06-1.53.69-2.92,1.5-4.17,2.41-1.21.86-2.42,1.93-3.63,3.21-1.22,1.28-2.11,2.38-2.64,3.3-.33.53-.74,1.47-1.21,2.78-.5,1.31-.73,2.14-.73,2.45l.49.8.36-.14c1.63-.53,3.15-1.28,4.57-2.24,1.42-.96,3.02-2.35,4.86-4.18,1.99-1.94,3.33-3.49,4.03-4.65,1.11-1.8,1.75-2.87,1.94-3.23.17-.35.28-.68.28-.99,0-.38-.23-.57-.68-.57Z"/>
      <path class="st1" d="M244,356.33l8.04-2.92c.85-.31,1.51-.47,1.97-.47.36,0,.66.13.9.38.26.26.39.56.39.92,0,.86-.52,2.37-1.6,4.54-.27.54-2.78,5.33-7.54,14.38-3.04,5.71-4.55,9.59-4.55,11.66,0,.61.2,1.12.63,1.5.43.39.99.59,1.65.59,1.94,0,4.52-1.24,7.74-3.73.47-.36.95-.52,1.39-.52.36,0,.68.15.95.44.28.3.42.63.42,1.01,0,.75-.64,1.71-1.93,2.89-2.62,2.35-5.94,4.3-9.93,5.85-1.92.75-3.36,1.12-4.34,1.12-.5,0-1.04-.24-1.57-.69-.62-.52-1.49-.95-2.61-1.34-2.06-.65-3.04-1.3-2.94-1.89l.34-1.57c-.15-.82-.22-1.28-.22-1.42,0-1.86,1.01-4.81,3.03-8.88l5.97-11.84c.88-1.78,1.55-3.39,2.03-4.82.33-1.03.52-1.61.52-1.72l-.24-2.43c0-.31.51-.65,1.49-1.03Z"/>
      <path class="st1" d="M276.68,385.49c-2.19,2.39-4.7,4.24-7.47,5.54-1.36.64-3.45,1.27-6.22,1.89-3.17.71-5.21,1.05-6.1,1.05-1.18,0-2.06-.54-2.65-1.62-.62-1.2-.92-2.27-.92-3.25,0-.71.22-1.38.64-2.01l1.53-2.23c1.45-2.2,2.61-3.74,3.47-4.57,3.61-3.54,8.04-6.57,13.26-9.12,4.45-2.18,8.12-3.28,10.98-3.28,2.45,0,4.67.53,6.69,1.59.83.44,1.25,1.02,1.25,1.72,0,.83-.48,2.38-1.46,4.64-2.66,6.16-3.98,10.99-3.98,14.51,0,.6.26,1.42.8,2.48.13.29.21.55.21.8,0,.47-.39.94-1.18,1.45-.54.36-1.05.54-1.49.54-.39,0-.99-.11-1.8-.33-.49-.12-.84-.2-1.06-.2-.12,0-.44.05-.94.15-.27.04-.53.07-.8.07-.82,0-1.39-.31-1.75-.9-.54-.97-.9-2.63-1.05-4.94l.04-4ZM282.83,371.96c-.55,0-1.27.19-2.18.57-.91.37-1.73.82-2.52,1.36-3.83,2.67-6.96,5.24-9.4,7.72-1.35,1.4-2.37,2.79-3.02,4.18-.42.85-.61,1.55-.61,2.08,0,.47.22.7.71.7,1.13,0,3.07-.95,5.85-2.85,2.62-1.79,5.12-4.06,7.56-6.8,1.41-1.57,2.71-3.33,3.92-5.31.34-.57.51-.97.51-1.2,0-.31-.27-.46-.82-.46Z"/>
      <path class="st1" d="M313.62,368.04c-1.59-3.77-3.39-6.78-5.38-9.04-2.38-2.61-5.5-4.36-9.39-5.27-1.34-.31-2-.77-2-1.37,0-.55.64-1.07,1.96-1.56,3.06-1.12,5.24-1.68,6.55-1.68,1.39,0,3.07.4,5.02,1.23,1.95.81,3.7,1.84,5.22,3.09,4.92,3.92,7.39,9.16,7.39,15.75,0,4.69-1.34,9.18-4.01,13.48-.91,1.48-1.86,2.6-2.85,3.34-2.14,1.6-3.72,2.82-4.74,3.69-.8.71-1.66,1.27-2.57,1.65-4.05,1.76-7.01,2.62-8.86,2.62-1.01,0-2.27-.34-3.82-1.03-1-.44-1.73-1.16-2.11-2.15-.54-1.24-.81-2.25-.81-3.05,0-.86.31-2.31.94-4.34.63-2.02,1.2-3.4,1.71-4.12,1.48-2.15,3.87-4.27,7.18-6.38,2.12-1.37,4.3-2.48,6.55-3.31l4.03-1.56ZM314.61,371.45c-3.87,2.53-6.93,5.44-9.13,8.77-1.46,2.25-2.19,4.19-2.19,5.82,0,.55.1,1.01.32,1.4.27.48.91.72,1.94.72,2.43,0,4.6-1.28,6.49-3.84,2.09-2.82,3.13-5.66,3.13-8.54,0-.66-.18-2.1-.56-4.34Z"/>
      <path class="st1" d="M335.53,387.75c2.01,1.8,4.28,2.7,6.79,2.7,1.17,0,2.92-.41,5.27-1.22.23-.09.51-.13.84-.13.45,0,.84.13,1.16.37.33.24.5.54.5.88,0,.82-.73,1.54-2.15,2.14-1.05.47-2.57.93-4.6,1.36-2.03.43-3.58.65-4.65.65s-1.94-.09-2.7-.23c-.19-.05-1.06-.3-2.65-.74-.97-.26-2.07-.5-3.3-.7-2.57-.41-4.22-.94-4.95-1.59-1.07-.95-1.6-2.51-1.6-4.66,0-2.03.53-3.88,1.6-5.57,1.85-2.9,3.58-5.01,5.17-6.34,1.26-1.06,2.96-2.21,5.15-3.44,2.16-1.24,4.17-2.21,5.99-2.92,2.33-.89,4.28-1.33,5.85-1.33,1.76,0,3.01.58,3.77,1.72.5.73.77,1.62.77,2.67,0,2.08-.45,3.58-1.33,4.49-.48.53-.82,1.11-1.01,1.76-.39,1.31-1.01,2.41-1.85,3.31-3.54,3.71-7.55,5.98-12.06,6.8ZM344.83,372.37c-1.31,0-2.71.62-4.23,1.83-1.78,1.45-3.28,3.39-4.49,5.86-.57,1.17-.87,1.96-.87,2.36,0,.77.32,1.16.95,1.16.32,0,.98-.3,1.98-.91.99-.61,2-1.32,3-2.14,3.31-2.69,4.95-4.97,4.95-6.83,0-.89-.44-1.34-1.3-1.34Z"/>
      <path class="st1" d="M370.98,371.92c-.3.73-.44,1.32-.44,1.79s.17.94.52,1.36c.23.27.79.89,1.7,1.87,1.01,1.05,1.85,2.37,2.52,3.98.54,1.32.8,2.32.8,3.01,0,.84-.24,1.78-.76,2.81-.52,1.03-1.12,1.86-1.85,2.51-1.9,1.68-4.39,2.95-7.45,3.85-2.06.59-4.13.89-6.18.89-2.6,0-4.72-.48-6.41-1.44-.76-.44-1.12-1.04-1.12-1.79,0-1.14.6-2.27,1.76-3.44,1.86-1.78,3.3-2.67,4.39-2.67.87,0,1.72.46,2.57,1.4.16.17.63.85,1.41,2.01.64.98,1.41,1.46,2.32,1.46.67,0,1-.35,1-1.09,0-.92-.17-2.13-.55-3.67-.26-1.04-.76-2.01-1.44-2.93-.11-.15-1.02-1.23-2.78-3.23-.66-.78-1-1.6-1-2.47,0-1.91,2.25-4.28,6.78-7.09,3.4-2.14,5.89-3.2,7.5-3.2.88,0,1.79.25,2.75.73.76.43,1.07.92.97,1.5l-.4,2.09c-.27,1.54-.54,2.43-.81,2.7-.46.44-1.14.67-2.04.67s-1.67-.19-2.41-.53c-.24-.11-.69-.47-1.36-1.07Z"/>
      <path class="st1" d="M393.51,377.63c6.79-6.12,11.38-9.21,13.75-9.21.87,0,1.65.33,2.39.98.34.33.52.9.52,1.68,0,.91-.1,1.79-.28,2.63l-2.55,11.97c-.22,1.01-.33,1.83-.33,2.43,0,.66.27,1.12.82,1.36.14.06.56.16,1.25.3.42.06.63.29.63.66,0,.6-.08,1.11-.28,1.53-.1.26-.4.48-.88.63-1.94.59-3.42,1.14-4.4,1.73-.88.53-1.51.79-1.84.79s-.86-.11-1.59-.36c-.74-.25-1.28-.48-1.65-.73-1.21-.78-1.82-1.88-1.82-3.32,0-.98.25-2.27.74-3.89l3.07-9.95c.11-.35.17-.6.17-.73,0-.29-.18-.43-.53-.43-.37,0-1.37.71-3.02,2.12-2.18,1.9-4.26,3.97-6.25,6.18-1.65,1.86-2.75,3.35-3.37,4.48-.55,1.14-.94,1.83-1.15,2.06-.29.27-.74.48-1.38.64-1.07.24-1.91.52-2.49.82-1.17.62-1.95.94-2.35.94-.57,0-1.01-.25-1.33-.77-.22-.31-.33-.7-.33-1.17,0-.69.36-1.74,1.05-3.14,1.62-3.34,2.54-5.49,2.83-6.44l1.2-3.92c.22-.8.83-2.21,1.82-4.24l8.01-16.17c2.26-4.58,3.74-7.07,4.43-7.51.32-.19,1.79-.87,4.4-2.05,1.8-.82,3.01-1.24,3.66-1.24.41,0,.79.15,1.09.45.34.31.5.65.5,1.01,0,.72-.31,1.68-.9,2.86l-13.61,27Z"/>
    </g>
    <g>
      <rect class="st1" x="67.84" y="53.53" width="168.89" height="6.65"/>
      <rect class="st1" x="67.84" y="53.53" width="7.25" height="119.23"/>
    </g>
    <g>
      <rect class="st1" x="411.29" y="53.53" width="7.25" height="142.49"/>
      <rect class="st1" x="289.95" y="53.53" width="128.59" height="6.65"/>
    </g>
  </g>
  <g>
    <path class="st1" d="M410.92,267.09c.77-.63,1.15-1.51,1.15-2.65s-.38-1.97-1.15-2.62c-.77-.65-1.83-.97-3.2-.97h-4.3v10.33h2.25v-3.15h2.04c.1,0,.18-.01.28-.02l2.05,3.16h2.25l-2.31-3.56c.34-.14.66-.31.92-.53ZM405.65,266.28v-3.64h1.94c.73,0,1.3.16,1.7.47.4.31.6.76.6,1.34s-.2,1.03-.6,1.35c-.4.32-.97.48-1.7.48h-1.94Z"/>
    <path class="st1" d="M415.86,262.34c-.46-1.11-1.11-2.08-1.94-2.92-.83-.84-1.81-1.49-2.94-1.95-1.13-.46-2.35-.69-3.66-.69s-2.53.24-3.66.71c-1.13.47-2.11,1.13-2.95,1.98-.84.85-1.49,1.83-1.97,2.95-.47,1.12-.71,2.32-.71,3.62s.23,2.5.69,3.62c.46,1.12,1.11,2.1,1.95,2.95.84.85,1.82,1.51,2.94,1.98,1.12.47,2.33.71,3.64.71s2.52-.24,3.64-.71c1.12-.47,2.1-1.13,2.95-1.98.85-.85,1.51-1.83,1.98-2.96.47-1.13.71-2.35.71-3.66s-.23-2.52-.69-3.63ZM414.46,269.06c-.38.96-.93,1.8-1.64,2.5-.71.71-1.53,1.26-2.48,1.66-.94.4-1.97.6-3.09.6s-2.1-.2-3.04-.59c-.94-.39-1.76-.95-2.46-1.66-.7-.72-1.24-1.55-1.63-2.49-.38-.94-.58-1.97-.58-3.07s.2-2.12.59-3.07c.39-.94.93-1.77,1.63-2.49.69-.72,1.51-1.27,2.46-1.66.95-.39,1.99-.59,3.11-.59s2.14.2,3.08.59c.93.39,1.75.94,2.44,1.64.69.7,1.23,1.52,1.61,2.46.38.94.58,1.97.58,3.07s-.19,2.13-.58,3.09Z"/>
  </g>
</svg>